<svg xmlns="http://www.w3.org/2000/svg" xmlns:xlink="http://www.w3.org/1999/xlink" width="65" zoomAndPan="magnify" viewBox="0 0 48.75 48.749998" height="65" preserveAspectRatio="xMidYMid meet" version="1.0"><defs><clipPath id="af5c9a59f2"><path d="M 1.554688 5.492188 L 47.0625 5.492188 L 47.0625 12.984375 L 1.554688 12.984375 Z M 1.554688 5.492188 " clip-rule="nonzero"/></clipPath><clipPath id="0ae37b50e2"><path d="M 1.554688 20.304688 L 47.0625 20.304688 L 47.0625 27.972656 L 1.554688 27.972656 Z M 1.554688 20.304688 " clip-rule="nonzero"/></clipPath><clipPath id="a3a2458de3"><path d="M 1.554688 35.289062 L 47.0625 35.289062 L 47.0625 42.800781 L 1.554688 42.800781 Z M 1.554688 35.289062 " clip-rule="nonzero"/></clipPath></defs><g clip-path="url(#af5c9a59f2)"><path fill="#1e1e1e" d="M 43.300781 12.957031 L 5.3125 12.957031 C 3.238281 12.957031 1.554688 11.285156 1.554688 9.222656 C 1.554688 7.164062 3.238281 5.492188 5.3125 5.492188 L 43.300781 5.492188 C 45.378906 5.492188 47.0625 7.164062 47.0625 9.222656 C 47.0625 11.285156 45.378906 12.957031 43.300781 12.957031 " fill-opacity="1" fill-rule="nonzero"/></g><g clip-path="url(#0ae37b50e2)"><path fill="#1e1e1e" d="M 43.300781 27.882812 L 5.3125 27.882812 C 3.238281 27.882812 1.554688 26.210938 1.554688 24.152344 C 1.554688 22.089844 3.238281 20.417969 5.3125 20.417969 L 43.300781 20.417969 C 45.378906 20.417969 47.0625 22.089844 47.0625 24.152344 C 47.0625 26.210938 45.378906 27.882812 43.300781 27.882812 " fill-opacity="1" fill-rule="nonzero"/></g><g clip-path="url(#a3a2458de3)"><path fill="#1e1e1e" d="M 43.300781 42.808594 L 5.3125 42.808594 C 3.238281 42.808594 1.554688 41.136719 1.554688 39.078125 C 1.554688 37.015625 3.238281 35.34375 5.3125 35.34375 L 43.300781 35.34375 C 45.378906 35.34375 47.0625 37.015625 47.0625 39.078125 C 47.0625 41.136719 45.378906 42.808594 43.300781 42.808594 " fill-opacity="1" fill-rule="nonzero"/></g></svg>