<svg xmlns="http://www.w3.org/2000/svg" xmlns:xlink="http://www.w3.org/1999/xlink" width="65" zoomAndPan="magnify" viewBox="0 0 48.75 48.749998" height="65" preserveAspectRatio="xMidYMid meet" version="1.0"><defs><clipPath id="7d5e83567e"><path d="M 2.929688 2.929688 L 45.460938 2.929688 L 45.460938 45.460938 L 2.929688 45.460938 Z M 2.929688 2.929688 " clip-rule="nonzero"/></clipPath></defs><g clip-path="url(#7d5e83567e)"><path fill="#1e1e1e" d="M 44.425781 9.382812 C 45.175781 8.65625 45.546875 7.769531 45.535156 6.726562 C 45.546875 5.679688 45.175781 4.785156 44.425781 4.039062 C 43.699219 3.308594 42.8125 2.9375 41.769531 2.929688 C 40.726562 2.9375 39.828125 3.308594 39.082031 4.039062 L 24.246094 18.902344 L 9.382812 4.039062 C 8.65625 3.308594 7.769531 2.9375 6.726562 2.929688 C 5.679688 2.9375 4.785156 3.308594 4.039062 4.039062 C 3.308594 4.785156 2.9375 5.679688 2.929688 6.726562 C 2.9375 7.769531 3.308594 8.65625 4.039062 9.382812 L 18.902344 24.246094 L 4.039062 39.082031 C 3.308594 39.828125 2.9375 40.726562 2.929688 41.769531 C 2.9375 42.8125 3.308594 43.699219 4.039062 44.425781 C 4.785156 45.175781 5.679688 45.546875 6.726562 45.535156 C 7.769531 45.546875 8.65625 45.175781 9.382812 44.425781 L 24.246094 29.589844 L 39.082031 44.425781 C 39.828125 45.175781 40.726562 45.546875 41.769531 45.535156 C 42.8125 45.546875 43.699219 45.175781 44.425781 44.425781 C 45.175781 43.699219 45.546875 42.8125 45.535156 41.769531 C 45.546875 40.726562 45.175781 39.828125 44.425781 39.082031 L 29.589844 24.246094 Z M 44.425781 9.382812 " fill-opacity="1" fill-rule="nonzero"/></g></svg>