<svg xmlns="http://www.w3.org/2000/svg" xmlns:xlink="http://www.w3.org/1999/xlink" width="40" zoomAndPan="magnify" viewBox="0 0 30 30.000001" height="40" preserveAspectRatio="xMidYMid meet" version="1.0"><defs><clipPath id="e2fc2bfd33"><path d="M 0.484375 0 L 29.515625 0 L 29.515625 29.03125 L 0.484375 29.03125 Z M 0.484375 0 " clip-rule="nonzero"/></clipPath><clipPath id="dac3998578"><path d="M 1.246094 0.761719 L 28.828125 0.761719 L 28.828125 28.34375 L 1.246094 28.34375 Z M 1.246094 0.761719 " clip-rule="nonzero"/></clipPath></defs><g clip-path="url(#e2fc2bfd33)"><path fill="#ffffff" d="M 0.484375 0 L 29.515625 0 L 29.515625 29.03125 L 0.484375 29.03125 Z M 0.484375 0 " fill-opacity="1" fill-rule="nonzero"/><path fill="#ffffff" d="M 0.484375 0 L 29.515625 0 L 29.515625 29.03125 L 0.484375 29.03125 Z M 0.484375 0 " fill-opacity="1" fill-rule="nonzero"/></g><g clip-path="url(#dac3998578)"><path fill="#000000" d="M 15.035156 0.761719 C 7.421875 0.761719 1.246094 6.9375 1.246094 14.550781 C 1.246094 22.167969 7.421875 28.34375 15.035156 28.34375 C 22.652344 28.34375 28.828125 22.167969 28.828125 14.550781 C 28.828125 6.9375 22.652344 0.761719 15.035156 0.761719 Z M 6.632812 7.957031 L 23.421875 7.957031 C 23.464844 7.957031 23.496094 7.976562 23.511719 8.015625 C 23.527344 8.054688 23.519531 8.085938 23.488281 8.117188 L 17.84375 13.472656 L 17.832031 13.484375 L 16.148438 15.082031 C 15.984375 15.238281 15.800781 15.355469 15.589844 15.441406 C 15.382812 15.523438 15.164062 15.5625 14.941406 15.5625 C 14.714844 15.5625 14.5 15.519531 14.292969 15.433594 C 14.085938 15.347656 13.902344 15.226562 13.738281 15.070312 L 12.179688 13.558594 C 12.175781 13.554688 12.175781 13.550781 12.171875 13.550781 L 6.566406 8.117188 C 6.535156 8.085938 6.527344 8.050781 6.542969 8.015625 C 6.5625 7.976562 6.589844 7.957031 6.632812 7.957031 Z M 5.839844 20.222656 L 5.839844 8.699219 C 5.839844 8.65625 5.859375 8.628906 5.894531 8.613281 C 5.933594 8.597656 5.96875 8.601562 5.996094 8.628906 L 11.324219 13.796875 C 11.363281 13.835938 11.367188 13.878906 11.328125 13.921875 L 6.003906 20.28125 C 5.976562 20.316406 5.941406 20.324219 5.902344 20.308594 C 5.859375 20.292969 5.839844 20.265625 5.839844 20.222656 Z M 23.597656 21.148438 L 6.476562 21.148438 C 6.4375 21.148438 6.410156 21.128906 6.390625 21.09375 C 6.375 21.058594 6.378906 21.027344 6.40625 20.996094 L 11.871094 14.464844 C 11.914062 14.414062 11.960938 14.414062 12.007812 14.460938 L 13.207031 15.621094 C 13.6875 16.089844 14.265625 16.324219 14.9375 16.328125 L 14.949219 16.328125 C 15.617188 16.328125 16.191406 16.097656 16.675781 15.636719 L 18 14.382812 C 18.046875 14.335938 18.09375 14.339844 18.132812 14.390625 L 23.667969 20.996094 C 23.691406 21.027344 23.695312 21.058594 23.679688 21.09375 C 23.664062 21.128906 23.636719 21.148438 23.597656 21.148438 Z M 24.234375 20.222656 C 24.234375 20.265625 24.210938 20.292969 24.171875 20.308594 C 24.132812 20.324219 24.097656 20.316406 24.070312 20.28125 L 18.683594 13.851562 C 18.648438 13.804688 18.648438 13.765625 18.691406 13.722656 L 24.078125 8.613281 C 24.105469 8.585938 24.140625 8.578125 24.175781 8.597656 C 24.214844 8.613281 24.234375 8.640625 24.234375 8.679688 Z M 24.234375 20.222656 " fill-opacity="1" fill-rule="nonzero"/></g></svg>