<svg width="150" height="246" viewBox="0 0 150 246" fill="none" xmlns="http://www.w3.org/2000/svg">
<path d="M41.6209 139.224C39.5604 184.119 24.7253 207.501 0 215.919V245.849C45.3297 240.237 70.0549 183.184 70.0549 98.071C70.0549 41.0176 56.456 0.799561 34.2033 0.799561C15.6593 0.799561 1.23626 28.8587 1.23626 71.8826C1.23626 111.165 11.9505 132.677 25.5494 139.224H41.6209ZM121.566 139.224C119.093 184.119 104.67 207.501 79.9451 215.919V245.849C125.275 240.237 150 183.184 150 98.071C150 41.0176 136.401 0.799561 113.736 0.799561C95.6044 0.799561 80.7692 28.8587 80.7692 71.8826C80.7692 111.165 91.4835 132.677 105.495 139.224H121.566Z" fill="#C7CCD0" fill-opacity="0.25"/>
</svg>
